<svg xmlns="http://www.w3.org/2000/svg" viewBox="0 0 48 48" fill="none"
     stroke="currentColor" stroke-width="2" stroke-linecap="round" stroke-linejoin="round">
  <!-- Camera body -->
  <rect x="4" y="16" width="40" height="26" rx="3"/>
  <!-- Viewfinder bump -->
  <path d="M14 16 L14 11 L30 11 L30 16"/>
  <!-- Shutter button -->
  <circle cx="34" cy="13.5" r="2" fill="currentColor" stroke="none"/>
  <!-- Lens: outer + inner ring -->
  <circle cx="24" cy="29" r="8"/>
  <circle cx="24" cy="29" r="3.5"/>
  <!-- Flower in upper-right (botanical detail, 5 petals) -->
  <path d="M41 7 C41 4.5 42.5 3.5 43 5 C43.5 6.5 42 8 41 7"   stroke-width="1.5"/>
  <path d="M41 7 C38.5 7 37.5 8.5 39 9.5 C40.5 10.5 42 9 41 7" stroke-width="1.5"/>
  <path d="M41 7 C39.5 5.5 39 3.5 40.5 3 C42 2.5 42 5.5 41 7"  stroke-width="1.5"/>
  <path d="M41 7 C42.5 5.5 43 3.5 41.5 3 C40 2.5 40 5.5 41 7"  stroke-width="1.5"/>
  <path d="M41 7 C43.5 7 44.5 8.5 43 9.5 C41.5 10.5 40 9 41 7" stroke-width="1.5"/>
  <circle cx="41" cy="7" r="1.75" fill="currentColor" stroke="none"/>
</svg>
