<svg xmlns="http://www.w3.org/2000/svg" viewBox="0 0 48 48" fill="none"
     stroke="currentColor" stroke-width="2" stroke-linecap="round" stroke-linejoin="round">
  <!-- Hiking boot — side view, simplified geometric outline -->
  <!-- Shaft (vertical) -->
  <path d="M12 44 L12 14 C12 13 13 12 14 12 L26 12 C27 12 28 13 28 14 L28 26"/>
  <!-- Foot extending right + toe cap -->
  <path d="M28 26 C34 26 40 28 42 32 C43 35 42 38 40 39"/>
  <path d="M40 39 C38 42 36 44 32 44"/>
  <!-- Sole bottom -->
  <line x1="10" y1="44" x2="32" y2="44" stroke-width="2.5"/>
  <!-- Heel block -->
  <path d="M10 44 L10 34 L12 34 L12 44"/>
  <!-- Fern growing from boot opening (shaft top) -->
  <path d="M20 12 C19.5 8 19 5 18 2.5" stroke-width="1.75"/>
  <path d="M19.5 10 C17 9   15.5 7.5 16 7"   stroke-width="1.25"/>
  <path d="M19 8   C16.5 7  15  5.5 15.5 5"  stroke-width="1.25"/>
  <path d="M18.5 6 C16.5 5  15  4  15.5 3.5" stroke-width="1"/>
  <path d="M19.5 10 C22 9   23.5 7.5 23 7"   stroke-width="1.25"/>
  <path d="M19 8   C21.5 7  23  5.5 22.5 5"  stroke-width="1.25"/>
  <path d="M18.5 6 C20.5 5  22  4  21.5 3.5" stroke-width="1"/>
</svg>
