<svg xmlns="http://www.w3.org/2000/svg" viewBox="0 0 24 24" fill="none"
     stroke="currentColor" stroke-width="1.75" stroke-linecap="round" stroke-linejoin="round">
  <!-- Shield outline -->
  <path d="M12 22 C8 20 4 17 4 10.5 V5 L12 2 L20 5 V10.5 C20 17 16 20 12 22 Z"/>
  <!-- Interior filled like a leaf: midrib + 12 lateral veins -->
  <line x1="12" y1="20" x2="12" y2="5" stroke-width="1.25"/>
  <path d="M12 18 L9   16.5" stroke-width="1"/>
  <path d="M12 16 L8   14.5" stroke-width="1"/>
  <path d="M12 14 L7   12.5" stroke-width="1"/>
  <path d="M12 12 L7   10.5" stroke-width="1"/>
  <path d="M12 10 L8   8.5"  stroke-width="1"/>
  <path d="M12 8  L9   7"    stroke-width="1"/>
  <path d="M12 18 L15  16.5" stroke-width="1"/>
  <path d="M12 16 L16  14.5" stroke-width="1"/>
  <path d="M12 14 L17  12.5" stroke-width="1"/>
  <path d="M12 12 L17  10.5" stroke-width="1"/>
  <path d="M12 10 L16  8.5"  stroke-width="1"/>
  <path d="M12 8  L15  7"    stroke-width="1"/>
</svg>
