<svg xmlns="http://www.w3.org/2000/svg" viewBox="0 0 24 24" fill="none"
     stroke="currentColor" stroke-width="1.75" stroke-linecap="round" stroke-linejoin="round">
  <!-- Folded-corner document -->
  <path d="M14 2 H6 C4.9 2 4 2.9 4 4 V20 C4 21.1 4.9 22 6 22 H18 C19.1 22 20 21.1 20 20 V8 L14 2 Z"/>
  <path d="M14 2 V8 H20"/>
  <!-- Two text lines (bottom area) -->
  <line x1="8" y1="17" x2="16" y2="17" stroke-width="1"    stroke-opacity="0.4"/>
  <line x1="8" y1="20" x2="14" y2="20" stroke-width="1"    stroke-opacity="0.4"/>
  <!-- Pressed fern specimen (larger, centered in upper body) -->
  <line x1="12" y1="15" x2="12" y2="5" stroke-width="1.25" stroke-opacity="0.6"/>
  <path d="M12 13 L9.5 11.5"  stroke-width="1"    stroke-opacity="0.5"/>
  <path d="M12 11 L9.5 9.5"   stroke-width="1"    stroke-opacity="0.5"/>
  <path d="M12 9  L10  8"     stroke-width="1"    stroke-opacity="0.5"/>
  <path d="M12 7  L10.5 6"    stroke-width="0.75" stroke-opacity="0.4"/>
  <path d="M12 13 L14.5 11.5" stroke-width="1"    stroke-opacity="0.5"/>
  <path d="M12 11 L14.5 9.5"  stroke-width="1"    stroke-opacity="0.5"/>
  <path d="M12 9  L14  8"     stroke-width="1"    stroke-opacity="0.5"/>
  <path d="M12 7  L13.5 6"    stroke-width="0.75" stroke-opacity="0.4"/>
</svg>
