<svg xmlns="http://www.w3.org/2000/svg" viewBox="0 0 24 24" fill="none"
     stroke="currentColor" stroke-width="1.75" stroke-linecap="round" stroke-linejoin="round">
  <!-- Heart (Feather path) -->
  <path d="M20.84 4.61a5.5 5.5 0 0 0-7.78 0L12 5.67l-1.06-1.06a5.5 5.5 0 0 0-7.78 7.78l1.06 1.06L12 21.23l7.78-7.78 1.06-1.06a5.5 5.5 0 0 0 0-7.78z"/>
  <!-- Midrib -->
  <line x1="12" y1="20" x2="12" y2="10" stroke-width="1.25"/>
  <!-- Lateral veins filling the heart -->
  <path d="M12 18 L9   16.5" stroke-width="0.75" stroke-opacity="0.5"/>
  <path d="M12 16 L8   14.5" stroke-width="0.75" stroke-opacity="0.5"/>
  <path d="M12 14 L7.5 12.5" stroke-width="0.75" stroke-opacity="0.5"/>
  <path d="M12 12 L8   10.5" stroke-width="0.75" stroke-opacity="0.5"/>
  <path d="M12 18 L15  16.5" stroke-width="0.75" stroke-opacity="0.5"/>
  <path d="M12 16 L16  14.5" stroke-width="0.75" stroke-opacity="0.5"/>
  <path d="M12 14 L16.5 12.5" stroke-width="0.75" stroke-opacity="0.5"/>
  <path d="M12 12 L16  10.5" stroke-width="0.75" stroke-opacity="0.5"/>
  <path d="M12 11 L9.5 9"    stroke-width="0.75" stroke-opacity="0.4"/>
  <path d="M12 11 L14.5 9"   stroke-width="0.75" stroke-opacity="0.4"/>
</svg>
